<?xml version="1.0" encoding="UTF-8" standalone="no"?>
<!DOCTYPE svg PUBLIC "-//W3C//DTD SVG 1.1//EN"
 "http://www.w3.org/Graphics/SVG/1.1/DTD/svg11.dtd">
<!-- Generated by graphviz version 2.43.0 (0)
 -->
<!-- Title: torch&#45;jit&#45;export Pages: 1 -->
<svg width="5092pt" height="418pt"
 viewBox="0.00 0.00 5092.00 418.00" xmlns="http://www.w3.org/2000/svg" xmlns:xlink="http://www.w3.org/1999/xlink">
<g id="graph0" class="graph" transform="scale(1 1) rotate(0) translate(4 414)">
<title>torch&#45;jit&#45;export</title>
<polygon fill="white" stroke="transparent" points="-4,4 -4,-414 5088,-414 5088,4 -4,4"/>
<!-- Conv_0/Conv (op#0)\n input0 input.1\n input1 1\n input2 2\n output0 13 -->
<g id="node1" class="node">
<title>Conv_0/Conv (op#0)\n input0 input.1\n input1 1\n input2 2\n output0 13</title>
<g id="a_node1"><a xlink:href="javascript:alert('')" xlink:title="Conv_0/Conv (op#0)\n input0 input.1\n input1 1\n input2 2\n output0 13">
<polygon fill="#0f9d58" stroke="#0f9d58" points="294,-113.5 132,-113.5 132,-30.5 294,-30.5 294,-113.5"/>
<text text-anchor="middle" x="213" y="-98.3" font-family="Times,serif" font-size="14.00" fill="#ffffff">Conv_0/Conv (op#0)</text>
<text text-anchor="middle" x="213" y="-83.3" font-family="Times,serif" font-size="14.00" fill="#ffffff"> input0 input.1</text>
<text text-anchor="middle" x="213" y="-68.3" font-family="Times,serif" font-size="14.00" fill="#ffffff"> input1 1</text>
<text text-anchor="middle" x="213" y="-53.3" font-family="Times,serif" font-size="14.00" fill="#ffffff"> input2 2</text>
<text text-anchor="middle" x="213" y="-38.3" font-family="Times,serif" font-size="14.00" fill="#ffffff"> output0 13</text>
</a>
</g>
</g>
<!-- 130 -->
<g id="node2" class="node">
<title>130</title>
<polygon fill="none" stroke="black" points="384,-64.54 384,-79.46 368.18,-90 345.82,-90 330,-79.46 330,-64.54 345.82,-54 368.18,-54 384,-64.54"/>
<text text-anchor="middle" x="357" y="-68.3" font-family="Times,serif" font-size="14.00">13</text>
</g>
<!-- Conv_0/Conv (op#0)\n input0 input.1\n input1 1\n input2 2\n output0 13&#45;&gt;130 -->
<g id="edge1" class="edge">
<title>Conv_0/Conv (op#0)\n input0 input.1\n input1 1\n input2 2\n output0 13&#45;&gt;130</title>
<path fill="none" stroke="black" d="M294.13,-72C302.95,-72 311.58,-72 319.47,-72"/>
<polygon fill="black" stroke="black" points="319.7,-75.5 329.7,-72 319.7,-68.5 319.7,-75.5"/>
</g>
<!-- Relu_1/Relu (op#1)\n input0 13\n output0 14 -->
<g id="node6" class="node">
<title>Relu_1/Relu (op#1)\n input0 13\n output0 14</title>
<g id="a_node6"><a xlink:href="javascript:alert('')" xlink:title="Relu_1/Relu (op#1)\n input0 13\n output0 14">
<polygon fill="#0f9d58" stroke="#0f9d58" points="575,-98.5 420,-98.5 420,-45.5 575,-45.5 575,-98.5"/>
<text text-anchor="middle" x="497.5" y="-83.3" font-family="Times,serif" font-size="14.00" fill="#ffffff">Relu_1/Relu (op#1)</text>
<text text-anchor="middle" x="497.5" y="-68.3" font-family="Times,serif" font-size="14.00" fill="#ffffff"> input0 13</text>
<text text-anchor="middle" x="497.5" y="-53.3" font-family="Times,serif" font-size="14.00" fill="#ffffff"> output0 14</text>
</a>
</g>
</g>
<!-- 130&#45;&gt;Relu_1/Relu (op#1)\n input0 13\n output0 14 -->
<g id="edge5" class="edge">
<title>130&#45;&gt;Relu_1/Relu (op#1)\n input0 13\n output0 14</title>
<path fill="none" stroke="black" d="M384.05,-72C391.65,-72 400.4,-72 409.59,-72"/>
<polygon fill="black" stroke="black" points="409.71,-75.5 419.71,-72 409.71,-68.5 409.71,-75.5"/>
</g>
<!-- input.10 -->
<g id="node3" class="node">
<title>input.10</title>
<polygon fill="none" stroke="black" points="96,-118.54 96,-133.46 67.88,-144 28.12,-144 0,-133.46 0,-118.54 28.12,-108 67.88,-108 96,-118.54"/>
<text text-anchor="middle" x="48" y="-122.3" font-family="Times,serif" font-size="14.00">input.1</text>
</g>
<!-- input.10&#45;&gt;Conv_0/Conv (op#0)\n input0 input.1\n input1 1\n input2 2\n output0 13 -->
<g id="edge2" class="edge">
<title>input.10&#45;&gt;Conv_0/Conv (op#0)\n input0 input.1\n input1 1\n input2 2\n output0 13</title>
<path fill="none" stroke="black" d="M84.77,-114.15C96.01,-110.43 108.96,-106.14 122.2,-101.75"/>
<polygon fill="black" stroke="black" points="123.49,-105.01 131.88,-98.54 121.29,-98.36 123.49,-105.01"/>
</g>
<!-- 10 -->
<g id="node4" class="node">
<title>10</title>
<polygon fill="none" stroke="black" points="75,-64.54 75,-79.46 59.18,-90 36.82,-90 21,-79.46 21,-64.54 36.82,-54 59.18,-54 75,-64.54"/>
<text text-anchor="middle" x="48" y="-68.3" font-family="Times,serif" font-size="14.00">1</text>
</g>
<!-- 10&#45;&gt;Conv_0/Conv (op#0)\n input0 input.1\n input1 1\n input2 2\n output0 13 -->
<g id="edge3" class="edge">
<title>10&#45;&gt;Conv_0/Conv (op#0)\n input0 input.1\n input1 1\n input2 2\n output0 13</title>
<path fill="none" stroke="black" d="M75.19,-72C88.2,-72 104.78,-72 121.87,-72"/>
<polygon fill="black" stroke="black" points="121.97,-75.5 131.97,-72 121.97,-68.5 121.97,-75.5"/>
</g>
<!-- 20 -->
<g id="node5" class="node">
<title>20</title>
<polygon fill="none" stroke="black" points="75,-10.54 75,-25.46 59.18,-36 36.82,-36 21,-25.46 21,-10.54 36.82,0 59.18,0 75,-10.54"/>
<text text-anchor="middle" x="48" y="-14.3" font-family="Times,serif" font-size="14.00">2</text>
</g>
<!-- 20&#45;&gt;Conv_0/Conv (op#0)\n input0 input.1\n input1 1\n input2 2\n output0 13 -->
<g id="edge4" class="edge">
<title>20&#45;&gt;Conv_0/Conv (op#0)\n input0 input.1\n input1 1\n input2 2\n output0 13</title>
<path fill="none" stroke="black" d="M74.11,-26.32C87.3,-30.69 104.35,-36.34 121.93,-42.16"/>
<polygon fill="black" stroke="black" points="121.14,-45.59 131.74,-45.41 123.35,-38.94 121.14,-45.59"/>
</g>
<!-- 140 -->
<g id="node7" class="node">
<title>140</title>
<polygon fill="none" stroke="black" points="665,-64.54 665,-79.46 649.18,-90 626.82,-90 611,-79.46 611,-64.54 626.82,-54 649.18,-54 665,-64.54"/>
<text text-anchor="middle" x="638" y="-68.3" font-family="Times,serif" font-size="14.00">14</text>
</g>
<!-- Relu_1/Relu (op#1)\n input0 13\n output0 14&#45;&gt;140 -->
<g id="edge6" class="edge">
<title>Relu_1/Relu (op#1)\n input0 13\n output0 14&#45;&gt;140</title>
<path fill="none" stroke="black" d="M575.04,-72C584,-72 592.8,-72 600.82,-72"/>
<polygon fill="black" stroke="black" points="600.87,-75.5 610.87,-72 600.87,-68.5 600.87,-75.5"/>
</g>
<!-- Conv_2/Conv (op#2)\n input0 14\n input1 3\n input2 4\n output0 15 -->
<g id="node8" class="node">
<title>Conv_2/Conv (op#2)\n input0 14\n input1 3\n input2 4\n output0 15</title>
<g id="a_node8"><a xlink:href="javascript:alert('')" xlink:title="Conv_2/Conv (op#2)\n input0 14\n input1 3\n input2 4\n output0 15">
<polygon fill="#0f9d58" stroke="#0f9d58" points="863,-167.5 701,-167.5 701,-84.5 863,-84.5 863,-167.5"/>
<text text-anchor="middle" x="782" y="-152.3" font-family="Times,serif" font-size="14.00" fill="#ffffff">Conv_2/Conv (op#2)</text>
<text text-anchor="middle" x="782" y="-137.3" font-family="Times,serif" font-size="14.00" fill="#ffffff"> input0 14</text>
<text text-anchor="middle" x="782" y="-122.3" font-family="Times,serif" font-size="14.00" fill="#ffffff"> input1 3</text>
<text text-anchor="middle" x="782" y="-107.3" font-family="Times,serif" font-size="14.00" fill="#ffffff"> input2 4</text>
<text text-anchor="middle" x="782" y="-92.3" font-family="Times,serif" font-size="14.00" fill="#ffffff"> output0 15</text>
</a>
</g>
</g>
<!-- 140&#45;&gt;Conv_2/Conv (op#2)\n input0 14\n input1 3\n input2 4\n output0 15 -->
<g id="edge7" class="edge">
<title>140&#45;&gt;Conv_2/Conv (op#2)\n input0 14\n input1 3\n input2 4\n output0 15</title>
<path fill="none" stroke="black" d="M662.77,-81.04C670.99,-84.16 680.76,-87.88 691.1,-91.81"/>
<polygon fill="black" stroke="black" points="690.14,-95.19 700.73,-95.48 692.63,-88.65 690.14,-95.19"/>
</g>
<!-- 150 -->
<g id="node9" class="node">
<title>150</title>
<polygon fill="none" stroke="black" points="953,-118.54 953,-133.46 937.18,-144 914.82,-144 899,-133.46 899,-118.54 914.82,-108 937.18,-108 953,-118.54"/>
<text text-anchor="middle" x="926" y="-122.3" font-family="Times,serif" font-size="14.00">15</text>
</g>
<!-- Conv_2/Conv (op#2)\n input0 14\n input1 3\n input2 4\n output0 15&#45;&gt;150 -->
<g id="edge8" class="edge">
<title>Conv_2/Conv (op#2)\n input0 14\n input1 3\n input2 4\n output0 15&#45;&gt;150</title>
<path fill="none" stroke="black" d="M863.13,-126C871.95,-126 880.58,-126 888.47,-126"/>
<polygon fill="black" stroke="black" points="888.7,-129.5 898.7,-126 888.7,-122.5 888.7,-129.5"/>
</g>
<!-- Relu_3/Relu (op#3)\n input0 15\n output0 16 -->
<g id="node12" class="node">
<title>Relu_3/Relu (op#3)\n input0 15\n output0 16</title>
<g id="a_node12"><a xlink:href="javascript:alert('')" xlink:title="Relu_3/Relu (op#3)\n input0 15\n output0 16">
<polygon fill="#0f9d58" stroke="#0f9d58" points="1144,-152.5 989,-152.5 989,-99.5 1144,-99.5 1144,-152.5"/>
<text text-anchor="middle" x="1066.5" y="-137.3" font-family="Times,serif" font-size="14.00" fill="#ffffff">Relu_3/Relu (op#3)</text>
<text text-anchor="middle" x="1066.5" y="-122.3" font-family="Times,serif" font-size="14.00" fill="#ffffff"> input0 15</text>
<text text-anchor="middle" x="1066.5" y="-107.3" font-family="Times,serif" font-size="14.00" fill="#ffffff"> output0 16</text>
</a>
</g>
</g>
<!-- 150&#45;&gt;Relu_3/Relu (op#3)\n input0 15\n output0 16 -->
<g id="edge11" class="edge">
<title>150&#45;&gt;Relu_3/Relu (op#3)\n input0 15\n output0 16</title>
<path fill="none" stroke="black" d="M953.05,-126C960.65,-126 969.4,-126 978.59,-126"/>
<polygon fill="black" stroke="black" points="978.71,-129.5 988.71,-126 978.71,-122.5 978.71,-129.5"/>
</g>
<!-- 30 -->
<g id="node10" class="node">
<title>30</title>
<polygon fill="none" stroke="black" points="665,-172.54 665,-187.46 649.18,-198 626.82,-198 611,-187.46 611,-172.54 626.82,-162 649.18,-162 665,-172.54"/>
<text text-anchor="middle" x="638" y="-176.3" font-family="Times,serif" font-size="14.00">3</text>
</g>
<!-- 30&#45;&gt;Conv_2/Conv (op#2)\n input0 14\n input1 3\n input2 4\n output0 15 -->
<g id="edge9" class="edge">
<title>30&#45;&gt;Conv_2/Conv (op#2)\n input0 14\n input1 3\n input2 4\n output0 15</title>
<path fill="none" stroke="black" d="M662.77,-170.96C670.99,-167.84 680.76,-164.12 691.1,-160.19"/>
<polygon fill="black" stroke="black" points="692.63,-163.35 700.73,-156.52 690.14,-156.81 692.63,-163.35"/>
</g>
<!-- 40 -->
<g id="node11" class="node">
<title>40</title>
<polygon fill="none" stroke="black" points="665,-118.54 665,-133.46 649.18,-144 626.82,-144 611,-133.46 611,-118.54 626.82,-108 649.18,-108 665,-118.54"/>
<text text-anchor="middle" x="638" y="-122.3" font-family="Times,serif" font-size="14.00">4</text>
</g>
<!-- 40&#45;&gt;Conv_2/Conv (op#2)\n input0 14\n input1 3\n input2 4\n output0 15 -->
<g id="edge10" class="edge">
<title>40&#45;&gt;Conv_2/Conv (op#2)\n input0 14\n input1 3\n input2 4\n output0 15</title>
<path fill="none" stroke="black" d="M665.04,-126C672.63,-126 681.38,-126 690.6,-126"/>
<polygon fill="black" stroke="black" points="690.76,-129.5 700.76,-126 690.76,-122.5 690.76,-129.5"/>
</g>
<!-- 160 -->
<g id="node13" class="node">
<title>160</title>
<polygon fill="none" stroke="black" points="1234,-118.54 1234,-133.46 1218.18,-144 1195.82,-144 1180,-133.46 1180,-118.54 1195.82,-108 1218.18,-108 1234,-118.54"/>
<text text-anchor="middle" x="1207" y="-122.3" font-family="Times,serif" font-size="14.00">16</text>
</g>
<!-- Relu_3/Relu (op#3)\n input0 15\n output0 16&#45;&gt;160 -->
<g id="edge12" class="edge">
<title>Relu_3/Relu (op#3)\n input0 15\n output0 16&#45;&gt;160</title>
<path fill="none" stroke="black" d="M1144.04,-126C1153,-126 1161.8,-126 1169.82,-126"/>
<polygon fill="black" stroke="black" points="1169.87,-129.5 1179.87,-126 1169.87,-122.5 1169.87,-129.5"/>
</g>
<!-- Conv_4/Conv (op#4)\n input0 16\n input1 5\n input2 6\n output0 17 -->
<g id="node14" class="node">
<title>Conv_4/Conv (op#4)\n input0 16\n input1 5\n input2 6\n output0 17</title>
<g id="a_node14"><a xlink:href="javascript:alert('')" xlink:title="Conv_4/Conv (op#4)\n input0 16\n input1 5\n input2 6\n output0 17">
<polygon fill="#0f9d58" stroke="#0f9d58" points="1432,-221.5 1270,-221.5 1270,-138.5 1432,-138.5 1432,-221.5"/>
<text text-anchor="middle" x="1351" y="-206.3" font-family="Times,serif" font-size="14.00" fill="#ffffff">Conv_4/Conv (op#4)</text>
<text text-anchor="middle" x="1351" y="-191.3" font-family="Times,serif" font-size="14.00" fill="#ffffff"> input0 16</text>
<text text-anchor="middle" x="1351" y="-176.3" font-family="Times,serif" font-size="14.00" fill="#ffffff"> input1 5</text>
<text text-anchor="middle" x="1351" y="-161.3" font-family="Times,serif" font-size="14.00" fill="#ffffff"> input2 6</text>
<text text-anchor="middle" x="1351" y="-146.3" font-family="Times,serif" font-size="14.00" fill="#ffffff"> output0 17</text>
</a>
</g>
</g>
<!-- 160&#45;&gt;Conv_4/Conv (op#4)\n input0 16\n input1 5\n input2 6\n output0 17 -->
<g id="edge13" class="edge">
<title>160&#45;&gt;Conv_4/Conv (op#4)\n input0 16\n input1 5\n input2 6\n output0 17</title>
<path fill="none" stroke="black" d="M1231.77,-135.04C1239.99,-138.16 1249.76,-141.88 1260.1,-145.81"/>
<polygon fill="black" stroke="black" points="1259.14,-149.19 1269.73,-149.48 1261.63,-142.65 1259.14,-149.19"/>
</g>
<!-- 170 -->
<g id="node15" class="node">
<title>170</title>
<polygon fill="none" stroke="black" points="1522,-172.54 1522,-187.46 1506.18,-198 1483.82,-198 1468,-187.46 1468,-172.54 1483.82,-162 1506.18,-162 1522,-172.54"/>
<text text-anchor="middle" x="1495" y="-176.3" font-family="Times,serif" font-size="14.00">17</text>
</g>
<!-- Conv_4/Conv (op#4)\n input0 16\n input1 5\n input2 6\n output0 17&#45;&gt;170 -->
<g id="edge14" class="edge">
<title>Conv_4/Conv (op#4)\n input0 16\n input1 5\n input2 6\n output0 17&#45;&gt;170</title>
<path fill="none" stroke="black" d="M1432.13,-180C1440.95,-180 1449.58,-180 1457.47,-180"/>
<polygon fill="black" stroke="black" points="1457.7,-183.5 1467.7,-180 1457.7,-176.5 1457.7,-183.5"/>
</g>
<!-- Relu_5/Relu (op#5)\n input0 17\n output0 18 -->
<g id="node18" class="node">
<title>Relu_5/Relu (op#5)\n input0 17\n output0 18</title>
<g id="a_node18"><a xlink:href="javascript:alert('')" xlink:title="Relu_5/Relu (op#5)\n input0 17\n output0 18">
<polygon fill="#0f9d58" stroke="#0f9d58" points="1713,-206.5 1558,-206.5 1558,-153.5 1713,-153.5 1713,-206.5"/>
<text text-anchor="middle" x="1635.5" y="-191.3" font-family="Times,serif" font-size="14.00" fill="#ffffff">Relu_5/Relu (op#5)</text>
<text text-anchor="middle" x="1635.5" y="-176.3" font-family="Times,serif" font-size="14.00" fill="#ffffff"> input0 17</text>
<text text-anchor="middle" x="1635.5" y="-161.3" font-family="Times,serif" font-size="14.00" fill="#ffffff"> output0 18</text>
</a>
</g>
</g>
<!-- 170&#45;&gt;Relu_5/Relu (op#5)\n input0 17\n output0 18 -->
<g id="edge17" class="edge">
<title>170&#45;&gt;Relu_5/Relu (op#5)\n input0 17\n output0 18</title>
<path fill="none" stroke="black" d="M1522.05,-180C1529.65,-180 1538.4,-180 1547.59,-180"/>
<polygon fill="black" stroke="black" points="1547.71,-183.5 1557.71,-180 1547.71,-176.5 1547.71,-183.5"/>
</g>
<!-- 50 -->
<g id="node16" class="node">
<title>50</title>
<polygon fill="none" stroke="black" points="1234,-226.54 1234,-241.46 1218.18,-252 1195.82,-252 1180,-241.46 1180,-226.54 1195.82,-216 1218.18,-216 1234,-226.54"/>
<text text-anchor="middle" x="1207" y="-230.3" font-family="Times,serif" font-size="14.00">5</text>
</g>
<!-- 50&#45;&gt;Conv_4/Conv (op#4)\n input0 16\n input1 5\n input2 6\n output0 17 -->
<g id="edge15" class="edge">
<title>50&#45;&gt;Conv_4/Conv (op#4)\n input0 16\n input1 5\n input2 6\n output0 17</title>
<path fill="none" stroke="black" d="M1231.77,-224.96C1239.99,-221.84 1249.76,-218.12 1260.1,-214.19"/>
<polygon fill="black" stroke="black" points="1261.63,-217.35 1269.73,-210.52 1259.14,-210.81 1261.63,-217.35"/>
</g>
<!-- 60 -->
<g id="node17" class="node">
<title>60</title>
<polygon fill="none" stroke="black" points="1234,-172.54 1234,-187.46 1218.18,-198 1195.82,-198 1180,-187.46 1180,-172.54 1195.82,-162 1218.18,-162 1234,-172.54"/>
<text text-anchor="middle" x="1207" y="-176.3" font-family="Times,serif" font-size="14.00">6</text>
</g>
<!-- 60&#45;&gt;Conv_4/Conv (op#4)\n input0 16\n input1 5\n input2 6\n output0 17 -->
<g id="edge16" class="edge">
<title>60&#45;&gt;Conv_4/Conv (op#4)\n input0 16\n input1 5\n input2 6\n output0 17</title>
<path fill="none" stroke="black" d="M1234.04,-180C1241.63,-180 1250.38,-180 1259.6,-180"/>
<polygon fill="black" stroke="black" points="1259.76,-183.5 1269.76,-180 1259.76,-176.5 1259.76,-183.5"/>
</g>
<!-- 180 -->
<g id="node19" class="node">
<title>180</title>
<polygon fill="none" stroke="black" points="1803,-172.54 1803,-187.46 1787.18,-198 1764.82,-198 1749,-187.46 1749,-172.54 1764.82,-162 1787.18,-162 1803,-172.54"/>
<text text-anchor="middle" x="1776" y="-176.3" font-family="Times,serif" font-size="14.00">18</text>
</g>
<!-- Relu_5/Relu (op#5)\n input0 17\n output0 18&#45;&gt;180 -->
<g id="edge18" class="edge">
<title>Relu_5/Relu (op#5)\n input0 17\n output0 18&#45;&gt;180</title>
<path fill="none" stroke="black" d="M1713.04,-180C1722,-180 1730.8,-180 1738.82,-180"/>
<polygon fill="black" stroke="black" points="1738.87,-183.5 1748.87,-180 1738.87,-176.5 1738.87,-183.5"/>
</g>
<!-- Conv_6/Conv (op#6)\n input0 18\n input1 7\n input2 8\n output0 19 -->
<g id="node20" class="node">
<title>Conv_6/Conv (op#6)\n input0 18\n input1 7\n input2 8\n output0 19</title>
<g id="a_node20"><a xlink:href="javascript:alert('')" xlink:title="Conv_6/Conv (op#6)\n input0 18\n input1 7\n input2 8\n output0 19">
<polygon fill="#0f9d58" stroke="#0f9d58" points="2001,-275.5 1839,-275.5 1839,-192.5 2001,-192.5 2001,-275.5"/>
<text text-anchor="middle" x="1920" y="-260.3" font-family="Times,serif" font-size="14.00" fill="#ffffff">Conv_6/Conv (op#6)</text>
<text text-anchor="middle" x="1920" y="-245.3" font-family="Times,serif" font-size="14.00" fill="#ffffff"> input0 18</text>
<text text-anchor="middle" x="1920" y="-230.3" font-family="Times,serif" font-size="14.00" fill="#ffffff"> input1 7</text>
<text text-anchor="middle" x="1920" y="-215.3" font-family="Times,serif" font-size="14.00" fill="#ffffff"> input2 8</text>
<text text-anchor="middle" x="1920" y="-200.3" font-family="Times,serif" font-size="14.00" fill="#ffffff"> output0 19</text>
</a>
</g>
</g>
<!-- 180&#45;&gt;Conv_6/Conv (op#6)\n input0 18\n input1 7\n input2 8\n output0 19 -->
<g id="edge19" class="edge">
<title>180&#45;&gt;Conv_6/Conv (op#6)\n input0 18\n input1 7\n input2 8\n output0 19</title>
<path fill="none" stroke="black" d="M1800.77,-189.04C1808.99,-192.16 1818.76,-195.88 1829.1,-199.81"/>
<polygon fill="black" stroke="black" points="1828.14,-203.19 1838.73,-203.48 1830.63,-196.65 1828.14,-203.19"/>
</g>
<!-- 190 -->
<g id="node21" class="node">
<title>190</title>
<polygon fill="none" stroke="black" points="2091,-226.54 2091,-241.46 2075.18,-252 2052.82,-252 2037,-241.46 2037,-226.54 2052.82,-216 2075.18,-216 2091,-226.54"/>
<text text-anchor="middle" x="2064" y="-230.3" font-family="Times,serif" font-size="14.00">19</text>
</g>
<!-- Conv_6/Conv (op#6)\n input0 18\n input1 7\n input2 8\n output0 19&#45;&gt;190 -->
<g id="edge20" class="edge">
<title>Conv_6/Conv (op#6)\n input0 18\n input1 7\n input2 8\n output0 19&#45;&gt;190</title>
<path fill="none" stroke="black" d="M2001.13,-234C2009.95,-234 2018.58,-234 2026.47,-234"/>
<polygon fill="black" stroke="black" points="2026.7,-237.5 2036.7,-234 2026.7,-230.5 2026.7,-237.5"/>
</g>
<!-- Relu_7/Relu (op#7)\n input0 19\n output0 20 -->
<g id="node24" class="node">
<title>Relu_7/Relu (op#7)\n input0 19\n output0 20</title>
<g id="a_node24"><a xlink:href="javascript:alert('')" xlink:title="Relu_7/Relu (op#7)\n input0 19\n output0 20">
<polygon fill="#0f9d58" stroke="#0f9d58" points="2282,-260.5 2127,-260.5 2127,-207.5 2282,-207.5 2282,-260.5"/>
<text text-anchor="middle" x="2204.5" y="-245.3" font-family="Times,serif" font-size="14.00" fill="#ffffff">Relu_7/Relu (op#7)</text>
<text text-anchor="middle" x="2204.5" y="-230.3" font-family="Times,serif" font-size="14.00" fill="#ffffff"> input0 19</text>
<text text-anchor="middle" x="2204.5" y="-215.3" font-family="Times,serif" font-size="14.00" fill="#ffffff"> output0 20</text>
</a>
</g>
</g>
<!-- 190&#45;&gt;Relu_7/Relu (op#7)\n input0 19\n output0 20 -->
<g id="edge23" class="edge">
<title>190&#45;&gt;Relu_7/Relu (op#7)\n input0 19\n output0 20</title>
<path fill="none" stroke="black" d="M2091.05,-234C2098.65,-234 2107.4,-234 2116.59,-234"/>
<polygon fill="black" stroke="black" points="2116.71,-237.5 2126.71,-234 2116.71,-230.5 2116.71,-237.5"/>
</g>
<!-- 70 -->
<g id="node22" class="node">
<title>70</title>
<polygon fill="none" stroke="black" points="1803,-280.54 1803,-295.46 1787.18,-306 1764.82,-306 1749,-295.46 1749,-280.54 1764.82,-270 1787.18,-270 1803,-280.54"/>
<text text-anchor="middle" x="1776" y="-284.3" font-family="Times,serif" font-size="14.00">7</text>
</g>
<!-- 70&#45;&gt;Conv_6/Conv (op#6)\n input0 18\n input1 7\n input2 8\n output0 19 -->
<g id="edge21" class="edge">
<title>70&#45;&gt;Conv_6/Conv (op#6)\n input0 18\n input1 7\n input2 8\n output0 19</title>
<path fill="none" stroke="black" d="M1800.77,-278.96C1808.99,-275.84 1818.76,-272.12 1829.1,-268.19"/>
<polygon fill="black" stroke="black" points="1830.63,-271.35 1838.73,-264.52 1828.14,-264.81 1830.63,-271.35"/>
</g>
<!-- 80 -->
<g id="node23" class="node">
<title>80</title>
<polygon fill="none" stroke="black" points="1803,-226.54 1803,-241.46 1787.18,-252 1764.82,-252 1749,-241.46 1749,-226.54 1764.82,-216 1787.18,-216 1803,-226.54"/>
<text text-anchor="middle" x="1776" y="-230.3" font-family="Times,serif" font-size="14.00">8</text>
</g>
<!-- 80&#45;&gt;Conv_6/Conv (op#6)\n input0 18\n input1 7\n input2 8\n output0 19 -->
<g id="edge22" class="edge">
<title>80&#45;&gt;Conv_6/Conv (op#6)\n input0 18\n input1 7\n input2 8\n output0 19</title>
<path fill="none" stroke="black" d="M1803.04,-234C1810.63,-234 1819.38,-234 1828.6,-234"/>
<polygon fill="black" stroke="black" points="1828.76,-237.5 1838.76,-234 1828.76,-230.5 1828.76,-237.5"/>
</g>
<!-- 200 -->
<g id="node25" class="node">
<title>200</title>
<polygon fill="none" stroke="black" points="2372,-226.54 2372,-241.46 2356.18,-252 2333.82,-252 2318,-241.46 2318,-226.54 2333.82,-216 2356.18,-216 2372,-226.54"/>
<text text-anchor="middle" x="2345" y="-230.3" font-family="Times,serif" font-size="14.00">20</text>
</g>
<!-- Relu_7/Relu (op#7)\n input0 19\n output0 20&#45;&gt;200 -->
<g id="edge24" class="edge">
<title>Relu_7/Relu (op#7)\n input0 19\n output0 20&#45;&gt;200</title>
<path fill="none" stroke="black" d="M2282.04,-234C2291,-234 2299.8,-234 2307.82,-234"/>
<polygon fill="black" stroke="black" points="2307.87,-237.5 2317.87,-234 2307.87,-230.5 2307.87,-237.5"/>
</g>
<!-- Shape_8/Shape (op#8)\n input0 20\n output0 21 -->
<g id="node26" class="node">
<title>Shape_8/Shape (op#8)\n input0 20\n output0 21</title>
<g id="a_node26"><a xlink:href="javascript:alert('')" xlink:title="Shape_8/Shape (op#8)\n input0 20\n output0 21">
<polygon fill="#0f9d58" stroke="#0f9d58" points="2607,-288.5 2428,-288.5 2428,-235.5 2607,-235.5 2607,-288.5"/>
<text text-anchor="middle" x="2517.5" y="-273.3" font-family="Times,serif" font-size="14.00" fill="#ffffff">Shape_8/Shape (op#8)</text>
<text text-anchor="middle" x="2517.5" y="-258.3" font-family="Times,serif" font-size="14.00" fill="#ffffff"> input0 20</text>
<text text-anchor="middle" x="2517.5" y="-243.3" font-family="Times,serif" font-size="14.00" fill="#ffffff"> output0 21</text>
</a>
</g>
</g>
<!-- 200&#45;&gt;Shape_8/Shape (op#8)\n input0 20\n output0 21 -->
<g id="edge25" class="edge">
<title>200&#45;&gt;Shape_8/Shape (op#8)\n input0 20\n output0 21</title>
<path fill="none" stroke="black" d="M2372.27,-238.31C2384.92,-240.39 2400.97,-243.03 2417.73,-245.78"/>
<polygon fill="black" stroke="black" points="2417.23,-249.24 2427.66,-247.41 2418.36,-242.34 2417.23,-249.24"/>
</g>
<!-- Reshape_13/Reshape (op#13)\n input0 20\n input1 27\n output0 28 -->
<g id="node27" class="node">
<title>Reshape_13/Reshape (op#13)\n input0 20\n input1 27\n output0 28</title>
<g id="a_node27"><a xlink:href="javascript:alert('')" xlink:title="Reshape_13/Reshape (op#13)\n input0 20\n input1 27\n output0 28">
<polygon fill="#0f9d58" stroke="#0f9d58" points="4041,-264 3811,-264 3811,-196 4041,-196 4041,-264"/>
<text text-anchor="middle" x="3926" y="-248.8" font-family="Times,serif" font-size="14.00" fill="#ffffff">Reshape_13/Reshape (op#13)</text>
<text text-anchor="middle" x="3926" y="-233.8" font-family="Times,serif" font-size="14.00" fill="#ffffff"> input0 20</text>
<text text-anchor="middle" x="3926" y="-218.8" font-family="Times,serif" font-size="14.00" fill="#ffffff"> input1 27</text>
<text text-anchor="middle" x="3926" y="-203.8" font-family="Times,serif" font-size="14.00" fill="#ffffff"> output0 28</text>
</a>
</g>
</g>
<!-- 200&#45;&gt;Reshape_13/Reshape (op#13)\n input0 20\n input1 27\n output0 28 -->
<g id="edge26" class="edge">
<title>200&#45;&gt;Reshape_13/Reshape (op#13)\n input0 20\n input1 27\n output0 28</title>
<path fill="none" stroke="black" d="M2372.19,-230.53C2429.51,-223.23 2570.43,-207 2689,-207 2689,-207 2689,-207 3582.5,-207 3654.91,-207 3735.74,-212.18 3800.68,-217.62"/>
<polygon fill="black" stroke="black" points="3800.7,-221.14 3810.96,-218.5 3801.29,-214.16 3800.7,-221.14"/>
</g>
<!-- 210 -->
<g id="node28" class="node">
<title>210</title>
<polygon fill="none" stroke="black" points="2717,-256.54 2717,-271.46 2701.18,-282 2678.82,-282 2663,-271.46 2663,-256.54 2678.82,-246 2701.18,-246 2717,-256.54"/>
<text text-anchor="middle" x="2690" y="-260.3" font-family="Times,serif" font-size="14.00">21</text>
</g>
<!-- Shape_8/Shape (op#8)\n input0 20\n output0 21&#45;&gt;210 -->
<g id="edge27" class="edge">
<title>Shape_8/Shape (op#8)\n input0 20\n output0 21&#45;&gt;210</title>
<path fill="none" stroke="black" d="M2607.25,-263.04C2623.34,-263.23 2639.26,-263.42 2652.72,-263.57"/>
<polygon fill="black" stroke="black" points="2652.9,-267.08 2662.94,-263.69 2652.98,-260.08 2652.9,-267.08"/>
</g>
<!-- 280 -->
<g id="node38" class="node">
<title>280</title>
<polygon fill="none" stroke="black" points="4131,-222.54 4131,-237.46 4115.18,-248 4092.82,-248 4077,-237.46 4077,-222.54 4092.82,-212 4115.18,-212 4131,-222.54"/>
<text text-anchor="middle" x="4104" y="-226.3" font-family="Times,serif" font-size="14.00">28</text>
</g>
<!-- Reshape_13/Reshape (op#13)\n input0 20\n input1 27\n output0 28&#45;&gt;280 -->
<g id="edge38" class="edge">
<title>Reshape_13/Reshape (op#13)\n input0 20\n input1 27\n output0 28&#45;&gt;280</title>
<path fill="none" stroke="black" d="M4041.44,-230C4050.47,-230 4059.09,-230 4066.87,-230"/>
<polygon fill="black" stroke="black" points="4066.91,-233.5 4076.91,-230 4066.91,-226.5 4066.91,-233.5"/>
</g>
<!-- Gather_10/Gather (op#10)\n input0 21\n input1 22\n output0 23 -->
<g id="node29" class="node">
<title>Gather_10/Gather (op#10)\n input0 21\n input1 22\n output0 23</title>
<g id="a_node29"><a xlink:href="javascript:alert('')" xlink:title="Gather_10/Gather (op#10)\n input0 21\n input1 22\n output0 23">
<polygon fill="#0f9d58" stroke="#0f9d58" points="2960,-303 2753,-303 2753,-235 2960,-235 2960,-303"/>
<text text-anchor="middle" x="2856.5" y="-287.8" font-family="Times,serif" font-size="14.00" fill="#ffffff">Gather_10/Gather (op#10)</text>
<text text-anchor="middle" x="2856.5" y="-272.8" font-family="Times,serif" font-size="14.00" fill="#ffffff"> input0 21</text>
<text text-anchor="middle" x="2856.5" y="-257.8" font-family="Times,serif" font-size="14.00" fill="#ffffff"> input1 22</text>
<text text-anchor="middle" x="2856.5" y="-242.8" font-family="Times,serif" font-size="14.00" fill="#ffffff"> output0 23</text>
</a>
</g>
</g>
<!-- 210&#45;&gt;Gather_10/Gather (op#10)\n input0 21\n input1 22\n output0 23 -->
<g id="edge28" class="edge">
<title>210&#45;&gt;Gather_10/Gather (op#10)\n input0 21\n input1 22\n output0 23</title>
<path fill="none" stroke="black" d="M2717.07,-264.79C2724.66,-265.02 2733.49,-265.29 2742.93,-265.58"/>
<polygon fill="black" stroke="black" points="2742.87,-269.08 2752.97,-265.88 2743.08,-262.08 2742.87,-269.08"/>
</g>
<!-- 230 -->
<g id="node32" class="node">
<title>230</title>
<polygon fill="none" stroke="black" points="3050,-261.54 3050,-276.46 3034.18,-287 3011.82,-287 2996,-276.46 2996,-261.54 3011.82,-251 3034.18,-251 3050,-261.54"/>
<text text-anchor="middle" x="3023" y="-265.3" font-family="Times,serif" font-size="14.00">23</text>
</g>
<!-- Gather_10/Gather (op#10)\n input0 21\n input1 22\n output0 23&#45;&gt;230 -->
<g id="edge31" class="edge">
<title>Gather_10/Gather (op#10)\n input0 21\n input1 22\n output0 23&#45;&gt;230</title>
<path fill="none" stroke="black" d="M2960.28,-269C2969.3,-269 2977.96,-269 2985.81,-269"/>
<polygon fill="black" stroke="black" points="2985.95,-272.5 2995.95,-269 2985.95,-265.5 2985.95,-272.5"/>
</g>
<!-- Constant_9/Constant (op#9)\n output0 22 -->
<g id="node30" class="node">
<title>Constant_9/Constant (op#9)\n output0 22</title>
<g id="a_node30"><a xlink:href="javascript:alert('')" xlink:title="Constant_9/Constant (op#9)\n output0 22">
<polygon fill="#0f9d58" stroke="#0f9d58" points="2627,-345 2408,-345 2408,-307 2627,-307 2627,-345"/>
<text text-anchor="middle" x="2517.5" y="-329.8" font-family="Times,serif" font-size="14.00" fill="#ffffff">Constant_9/Constant (op#9)</text>
<text text-anchor="middle" x="2517.5" y="-314.8" font-family="Times,serif" font-size="14.00" fill="#ffffff"> output0 22</text>
</a>
</g>
</g>
<!-- 220 -->
<g id="node31" class="node">
<title>220</title>
<polygon fill="none" stroke="black" points="2717,-315.54 2717,-330.46 2701.18,-341 2678.82,-341 2663,-330.46 2663,-315.54 2678.82,-305 2701.18,-305 2717,-315.54"/>
<text text-anchor="middle" x="2690" y="-319.3" font-family="Times,serif" font-size="14.00">22</text>
</g>
<!-- Constant_9/Constant (op#9)\n output0 22&#45;&gt;220 -->
<g id="edge29" class="edge">
<title>Constant_9/Constant (op#9)\n output0 22&#45;&gt;220</title>
<path fill="none" stroke="black" d="M2627.45,-324.08C2636.42,-323.93 2645.01,-323.77 2652.78,-323.64"/>
<polygon fill="black" stroke="black" points="2652.89,-327.14 2662.83,-323.46 2652.77,-320.14 2652.89,-327.14"/>
</g>
<!-- 220&#45;&gt;Gather_10/Gather (op#10)\n input0 21\n input1 22\n output0 23 -->
<g id="edge30" class="edge">
<title>220&#45;&gt;Gather_10/Gather (op#10)\n input0 21\n input1 22\n output0 23</title>
<path fill="none" stroke="black" d="M2715.98,-314.8C2723.88,-312.2 2733.19,-309.15 2743.17,-305.87"/>
<polygon fill="black" stroke="black" points="2744.52,-309.11 2752.93,-302.67 2742.34,-302.46 2744.52,-309.11"/>
</g>
<!-- Unsqueeze_11/Unsqueeze (op#11)\n input0 23\n output0 25 -->
<g id="node33" class="node">
<title>Unsqueeze_11/Unsqueeze (op#11)\n input0 23\n output0 25</title>
<g id="a_node33"><a xlink:href="javascript:alert('')" xlink:title="Unsqueeze_11/Unsqueeze (op#11)\n input0 23\n output0 25">
<polygon fill="#0f9d58" stroke="#0f9d58" points="3352,-295.5 3086,-295.5 3086,-242.5 3352,-242.5 3352,-295.5"/>
<text text-anchor="middle" x="3219" y="-280.3" font-family="Times,serif" font-size="14.00" fill="#ffffff">Unsqueeze_11/Unsqueeze (op#11)</text>
<text text-anchor="middle" x="3219" y="-265.3" font-family="Times,serif" font-size="14.00" fill="#ffffff"> input0 23</text>
<text text-anchor="middle" x="3219" y="-250.3" font-family="Times,serif" font-size="14.00" fill="#ffffff"> output0 25</text>
</a>
</g>
</g>
<!-- 230&#45;&gt;Unsqueeze_11/Unsqueeze (op#11)\n input0 23\n output0 25 -->
<g id="edge32" class="edge">
<title>230&#45;&gt;Unsqueeze_11/Unsqueeze (op#11)\n input0 23\n output0 25</title>
<path fill="none" stroke="black" d="M3050.16,-269C3057.61,-269 3066.28,-269 3075.68,-269"/>
<polygon fill="black" stroke="black" points="3075.73,-272.5 3085.73,-269 3075.73,-265.5 3075.73,-272.5"/>
</g>
<!-- 250 -->
<g id="node34" class="node">
<title>250</title>
<polygon fill="none" stroke="black" points="3442,-261.54 3442,-276.46 3426.18,-287 3403.82,-287 3388,-276.46 3388,-261.54 3403.82,-251 3426.18,-251 3442,-261.54"/>
<text text-anchor="middle" x="3415" y="-265.3" font-family="Times,serif" font-size="14.00">25</text>
</g>
<!-- Unsqueeze_11/Unsqueeze (op#11)\n input0 23\n output0 25&#45;&gt;250 -->
<g id="edge33" class="edge">
<title>Unsqueeze_11/Unsqueeze (op#11)\n input0 23\n output0 25&#45;&gt;250</title>
<path fill="none" stroke="black" d="M3352.08,-269C3361.31,-269 3370.04,-269 3377.89,-269"/>
<polygon fill="black" stroke="black" points="3377.99,-272.5 3387.99,-269 3377.99,-265.5 3377.99,-272.5"/>
</g>
<!-- Concat_12/Concat (op#12)\n input0 25\n input1 32\n output0 27 -->
<g id="node35" class="node">
<title>Concat_12/Concat (op#12)\n input0 25\n input1 32\n output0 27</title>
<g id="a_node35"><a xlink:href="javascript:alert('')" xlink:title="Concat_12/Concat (op#12)\n input0 25\n input1 32\n output0 27">
<polygon fill="#0f9d58" stroke="#0f9d58" points="3685,-303 3478,-303 3478,-235 3685,-235 3685,-303"/>
<text text-anchor="middle" x="3581.5" y="-287.8" font-family="Times,serif" font-size="14.00" fill="#ffffff">Concat_12/Concat (op#12)</text>
<text text-anchor="middle" x="3581.5" y="-272.8" font-family="Times,serif" font-size="14.00" fill="#ffffff"> input0 25</text>
<text text-anchor="middle" x="3581.5" y="-257.8" font-family="Times,serif" font-size="14.00" fill="#ffffff"> input1 32</text>
<text text-anchor="middle" x="3581.5" y="-242.8" font-family="Times,serif" font-size="14.00" fill="#ffffff"> output0 27</text>
</a>
</g>
</g>
<!-- 250&#45;&gt;Concat_12/Concat (op#12)\n input0 25\n input1 32\n output0 27 -->
<g id="edge34" class="edge">
<title>250&#45;&gt;Concat_12/Concat (op#12)\n input0 25\n input1 32\n output0 27</title>
<path fill="none" stroke="black" d="M3442.07,-269C3449.66,-269 3458.49,-269 3467.93,-269"/>
<polygon fill="black" stroke="black" points="3467.97,-272.5 3477.97,-269 3467.97,-265.5 3467.97,-272.5"/>
</g>
<!-- 270 -->
<g id="node36" class="node">
<title>270</title>
<polygon fill="none" stroke="black" points="3775,-253.54 3775,-268.46 3759.18,-279 3736.82,-279 3721,-268.46 3721,-253.54 3736.82,-243 3759.18,-243 3775,-253.54"/>
<text text-anchor="middle" x="3748" y="-257.3" font-family="Times,serif" font-size="14.00">27</text>
</g>
<!-- Concat_12/Concat (op#12)\n input0 25\n input1 32\n output0 27&#45;&gt;270 -->
<g id="edge35" class="edge">
<title>Concat_12/Concat (op#12)\n input0 25\n input1 32\n output0 27&#45;&gt;270</title>
<path fill="none" stroke="black" d="M3685.28,-264C3694.3,-263.56 3702.96,-263.14 3710.81,-262.76"/>
<polygon fill="black" stroke="black" points="3711.13,-266.25 3720.95,-262.27 3710.79,-259.26 3711.13,-266.25"/>
</g>
<!-- 270&#45;&gt;Reshape_13/Reshape (op#13)\n input0 20\n input1 27\n output0 28 -->
<g id="edge37" class="edge">
<title>270&#45;&gt;Reshape_13/Reshape (op#13)\n input0 20\n input1 27\n output0 28</title>
<path fill="none" stroke="black" d="M3775.35,-256.36C3782.82,-255.04 3791.49,-253.52 3800.81,-251.87"/>
<polygon fill="black" stroke="black" points="3801.5,-255.31 3810.74,-250.13 3800.28,-248.41 3801.5,-255.31"/>
</g>
<!-- 320 -->
<g id="node37" class="node">
<title>320</title>
<polygon fill="none" stroke="black" points="3442,-315.54 3442,-330.46 3426.18,-341 3403.82,-341 3388,-330.46 3388,-315.54 3403.82,-305 3426.18,-305 3442,-315.54"/>
<text text-anchor="middle" x="3415" y="-319.3" font-family="Times,serif" font-size="14.00">32</text>
</g>
<!-- 320&#45;&gt;Concat_12/Concat (op#12)\n input0 25\n input1 32\n output0 27 -->
<g id="edge36" class="edge">
<title>320&#45;&gt;Concat_12/Concat (op#12)\n input0 25\n input1 32\n output0 27</title>
<path fill="none" stroke="black" d="M3440.98,-314.8C3448.88,-312.2 3458.19,-309.15 3468.17,-305.87"/>
<polygon fill="black" stroke="black" points="3469.52,-309.11 3477.93,-302.67 3467.34,-302.46 3469.52,-309.11"/>
</g>
<!-- Gemm_14/Gemm (op#14)\n input0 28\n input1 9\n input2 10\n output0 29 -->
<g id="node39" class="node">
<title>Gemm_14/Gemm (op#14)\n input0 28\n input1 9\n input2 10\n output0 29</title>
<g id="a_node39"><a xlink:href="javascript:alert('')" xlink:title="Gemm_14/Gemm (op#14)\n input0 28\n input1 9\n input2 10\n output0 29">
<polygon fill="#0f9d58" stroke="#0f9d58" points="4368,-325.5 4167,-325.5 4167,-242.5 4368,-242.5 4368,-325.5"/>
<text text-anchor="middle" x="4267.5" y="-310.3" font-family="Times,serif" font-size="14.00" fill="#ffffff">Gemm_14/Gemm (op#14)</text>
<text text-anchor="middle" x="4267.5" y="-295.3" font-family="Times,serif" font-size="14.00" fill="#ffffff"> input0 28</text>
<text text-anchor="middle" x="4267.5" y="-280.3" font-family="Times,serif" font-size="14.00" fill="#ffffff"> input1 9</text>
<text text-anchor="middle" x="4267.5" y="-265.3" font-family="Times,serif" font-size="14.00" fill="#ffffff"> input2 10</text>
<text text-anchor="middle" x="4267.5" y="-250.3" font-family="Times,serif" font-size="14.00" fill="#ffffff"> output0 29</text>
</a>
</g>
</g>
<!-- 280&#45;&gt;Gemm_14/Gemm (op#14)\n input0 28\n input1 9\n input2 10\n output0 29 -->
<g id="edge39" class="edge">
<title>280&#45;&gt;Gemm_14/Gemm (op#14)\n input0 28\n input1 9\n input2 10\n output0 29</title>
<path fill="none" stroke="black" d="M4129.88,-238.32C4137.79,-240.96 4147.11,-244.08 4157.1,-247.42"/>
<polygon fill="black" stroke="black" points="4156.26,-250.83 4166.85,-250.68 4158.48,-244.19 4156.26,-250.83"/>
</g>
<!-- 290 -->
<g id="node40" class="node">
<title>290</title>
<polygon fill="none" stroke="black" points="4458,-276.54 4458,-291.46 4442.18,-302 4419.82,-302 4404,-291.46 4404,-276.54 4419.82,-266 4442.18,-266 4458,-276.54"/>
<text text-anchor="middle" x="4431" y="-280.3" font-family="Times,serif" font-size="14.00">29</text>
</g>
<!-- Gemm_14/Gemm (op#14)\n input0 28\n input1 9\n input2 10\n output0 29&#45;&gt;290 -->
<g id="edge40" class="edge">
<title>Gemm_14/Gemm (op#14)\n input0 28\n input1 9\n input2 10\n output0 29&#45;&gt;290</title>
<path fill="none" stroke="black" d="M4368.02,-284C4377.04,-284 4385.72,-284 4393.59,-284"/>
<polygon fill="black" stroke="black" points="4393.77,-287.5 4403.77,-284 4393.77,-280.5 4393.77,-287.5"/>
</g>
<!-- Relu_15/Relu (op#15)\n input0 29\n output0 30 -->
<g id="node43" class="node">
<title>Relu_15/Relu (op#15)\n input0 29\n output0 30</title>
<g id="a_node43"><a xlink:href="javascript:alert('')" xlink:title="Relu_15/Relu (op#15)\n input0 29\n output0 30">
<polygon fill="#0f9d58" stroke="#0f9d58" points="4667,-310.5 4494,-310.5 4494,-257.5 4667,-257.5 4667,-310.5"/>
<text text-anchor="middle" x="4580.5" y="-295.3" font-family="Times,serif" font-size="14.00" fill="#ffffff">Relu_15/Relu (op#15)</text>
<text text-anchor="middle" x="4580.5" y="-280.3" font-family="Times,serif" font-size="14.00" fill="#ffffff"> input0 29</text>
<text text-anchor="middle" x="4580.5" y="-265.3" font-family="Times,serif" font-size="14.00" fill="#ffffff"> output0 30</text>
</a>
</g>
</g>
<!-- 290&#45;&gt;Relu_15/Relu (op#15)\n input0 29\n output0 30 -->
<g id="edge43" class="edge">
<title>290&#45;&gt;Relu_15/Relu (op#15)\n input0 29\n output0 30</title>
<path fill="none" stroke="black" d="M4458.03,-284C4465.62,-284 4474.4,-284 4483.69,-284"/>
<polygon fill="black" stroke="black" points="4483.93,-287.5 4493.93,-284 4483.93,-280.5 4483.93,-287.5"/>
</g>
<!-- 90 -->
<g id="node41" class="node">
<title>90</title>
<polygon fill="none" stroke="black" points="4131,-330.54 4131,-345.46 4115.18,-356 4092.82,-356 4077,-345.46 4077,-330.54 4092.82,-320 4115.18,-320 4131,-330.54"/>
<text text-anchor="middle" x="4104" y="-334.3" font-family="Times,serif" font-size="14.00">9</text>
</g>
<!-- 90&#45;&gt;Gemm_14/Gemm (op#14)\n input0 28\n input1 9\n input2 10\n output0 29 -->
<g id="edge41" class="edge">
<title>90&#45;&gt;Gemm_14/Gemm (op#14)\n input0 28\n input1 9\n input2 10\n output0 29</title>
<path fill="none" stroke="black" d="M4129.88,-329.68C4137.79,-327.04 4147.11,-323.92 4157.1,-320.58"/>
<polygon fill="black" stroke="black" points="4158.48,-323.81 4166.85,-317.32 4156.26,-317.17 4158.48,-323.81"/>
</g>
<!-- 100 -->
<g id="node42" class="node">
<title>100</title>
<polygon fill="none" stroke="black" points="4131,-276.54 4131,-291.46 4115.18,-302 4092.82,-302 4077,-291.46 4077,-276.54 4092.82,-266 4115.18,-266 4131,-276.54"/>
<text text-anchor="middle" x="4104" y="-280.3" font-family="Times,serif" font-size="14.00">10</text>
</g>
<!-- 100&#45;&gt;Gemm_14/Gemm (op#14)\n input0 28\n input1 9\n input2 10\n output0 29 -->
<g id="edge42" class="edge">
<title>100&#45;&gt;Gemm_14/Gemm (op#14)\n input0 28\n input1 9\n input2 10\n output0 29</title>
<path fill="none" stroke="black" d="M4131.31,-284C4138.79,-284 4147.44,-284 4156.68,-284"/>
<polygon fill="black" stroke="black" points="4156.9,-287.5 4166.9,-284 4156.9,-280.5 4156.9,-287.5"/>
</g>
<!-- 300 -->
<g id="node44" class="node">
<title>300</title>
<polygon fill="none" stroke="black" points="4757,-276.54 4757,-291.46 4741.18,-302 4718.82,-302 4703,-291.46 4703,-276.54 4718.82,-266 4741.18,-266 4757,-276.54"/>
<text text-anchor="middle" x="4730" y="-280.3" font-family="Times,serif" font-size="14.00">30</text>
</g>
<!-- Relu_15/Relu (op#15)\n input0 29\n output0 30&#45;&gt;300 -->
<g id="edge44" class="edge">
<title>Relu_15/Relu (op#15)\n input0 29\n output0 30&#45;&gt;300</title>
<path fill="none" stroke="black" d="M4667.3,-284C4676.19,-284 4684.84,-284 4692.71,-284"/>
<polygon fill="black" stroke="black" points="4692.92,-287.5 4702.92,-284 4692.92,-280.5 4692.92,-287.5"/>
</g>
<!-- Gemm_16/Gemm (op#16)\n input0 30\n input1 11\n input2 12\n output0 31 -->
<g id="node45" class="node">
<title>Gemm_16/Gemm (op#16)\n input0 30\n input1 11\n input2 12\n output0 31</title>
<g id="a_node45"><a xlink:href="javascript:alert('')" xlink:title="Gemm_16/Gemm (op#16)\n input0 30\n input1 11\n input2 12\n output0 31">
<polygon fill="#0f9d58" stroke="#0f9d58" points="4994,-379.5 4793,-379.5 4793,-296.5 4994,-296.5 4994,-379.5"/>
<text text-anchor="middle" x="4893.5" y="-364.3" font-family="Times,serif" font-size="14.00" fill="#ffffff">Gemm_16/Gemm (op#16)</text>
<text text-anchor="middle" x="4893.5" y="-349.3" font-family="Times,serif" font-size="14.00" fill="#ffffff"> input0 30</text>
<text text-anchor="middle" x="4893.5" y="-334.3" font-family="Times,serif" font-size="14.00" fill="#ffffff"> input1 11</text>
<text text-anchor="middle" x="4893.5" y="-319.3" font-family="Times,serif" font-size="14.00" fill="#ffffff"> input2 12</text>
<text text-anchor="middle" x="4893.5" y="-304.3" font-family="Times,serif" font-size="14.00" fill="#ffffff"> output0 31</text>
</a>
</g>
</g>
<!-- 300&#45;&gt;Gemm_16/Gemm (op#16)\n input0 30\n input1 11\n input2 12\n output0 31 -->
<g id="edge45" class="edge">
<title>300&#45;&gt;Gemm_16/Gemm (op#16)\n input0 30\n input1 11\n input2 12\n output0 31</title>
<path fill="none" stroke="black" d="M4755.88,-292.32C4763.79,-294.96 4773.11,-298.08 4783.1,-301.42"/>
<polygon fill="black" stroke="black" points="4782.26,-304.83 4792.85,-304.68 4784.48,-298.19 4782.26,-304.83"/>
</g>
<!-- 310 -->
<g id="node46" class="node">
<title>310</title>
<polygon fill="none" stroke="black" points="5084,-330.54 5084,-345.46 5068.18,-356 5045.82,-356 5030,-345.46 5030,-330.54 5045.82,-320 5068.18,-320 5084,-330.54"/>
<text text-anchor="middle" x="5057" y="-334.3" font-family="Times,serif" font-size="14.00">31</text>
</g>
<!-- Gemm_16/Gemm (op#16)\n input0 30\n input1 11\n input2 12\n output0 31&#45;&gt;310 -->
<g id="edge46" class="edge">
<title>Gemm_16/Gemm (op#16)\n input0 30\n input1 11\n input2 12\n output0 31&#45;&gt;310</title>
<path fill="none" stroke="black" d="M4994.02,-338C5003.04,-338 5011.72,-338 5019.59,-338"/>
<polygon fill="black" stroke="black" points="5019.77,-341.5 5029.77,-338 5019.77,-334.5 5019.77,-341.5"/>
</g>
<!-- 110 -->
<g id="node47" class="node">
<title>110</title>
<polygon fill="none" stroke="black" points="4757,-384.54 4757,-399.46 4741.18,-410 4718.82,-410 4703,-399.46 4703,-384.54 4718.82,-374 4741.18,-374 4757,-384.54"/>
<text text-anchor="middle" x="4730" y="-388.3" font-family="Times,serif" font-size="14.00">11</text>
</g>
<!-- 110&#45;&gt;Gemm_16/Gemm (op#16)\n input0 30\n input1 11\n input2 12\n output0 31 -->
<g id="edge47" class="edge">
<title>110&#45;&gt;Gemm_16/Gemm (op#16)\n input0 30\n input1 11\n input2 12\n output0 31</title>
<path fill="none" stroke="black" d="M4755.88,-383.68C4763.79,-381.04 4773.11,-377.92 4783.1,-374.58"/>
<polygon fill="black" stroke="black" points="4784.48,-377.81 4792.85,-371.32 4782.26,-371.17 4784.48,-377.81"/>
</g>
<!-- 120 -->
<g id="node48" class="node">
<title>120</title>
<polygon fill="none" stroke="black" points="4757,-330.54 4757,-345.46 4741.18,-356 4718.82,-356 4703,-345.46 4703,-330.54 4718.82,-320 4741.18,-320 4757,-330.54"/>
<text text-anchor="middle" x="4730" y="-334.3" font-family="Times,serif" font-size="14.00">12</text>
</g>
<!-- 120&#45;&gt;Gemm_16/Gemm (op#16)\n input0 30\n input1 11\n input2 12\n output0 31 -->
<g id="edge48" class="edge">
<title>120&#45;&gt;Gemm_16/Gemm (op#16)\n input0 30\n input1 11\n input2 12\n output0 31</title>
<path fill="none" stroke="black" d="M4757.31,-338C4764.79,-338 4773.44,-338 4782.68,-338"/>
<polygon fill="black" stroke="black" points="4782.9,-341.5 4792.9,-338 4782.9,-334.5 4782.9,-341.5"/>
</g>
</g>
</svg>
